<svg data-name="Layer 1" xmlns="http://www.w3.org/2000/svg" viewBox="0 0 656.96 321.58"><title>ys-brand-w</title><path d="M19.65 248.91v-1.58l8.81-4.16v-24.75L7.12 189.31l-7.13-4.16v-1.58h34.95v1.58L27.32 189v.4l16.93 22.78 15.15-22.57v-.4l-7.92-4.06v-1.58h23.56v1.58l-6.83 3.27-20.89 30v24.75l8.81 4.16v1.58H19.65zm91.82.99a36.54 36.54 0 0 1-17.92-4.36 32.46 32.46 0 0 1-12.47-12 35.23 35.23 0 0 1 0-34.65 32.48 32.48 0 0 1 12.47-12 36.55 36.55 0 0 1 17.92-4.36 36.77 36.77 0 0 1 18 4.36 32.5 32.5 0 0 1 12.47 12 35.23 35.23 0 0 1 0 34.65 32.48 32.48 0 0 1-12.47 12 36.76 36.76 0 0 1-18 4.36zm1.29-5.25q6.24 0 10.1-6.93t3.86-18.61q0-14.26-4.7-22.82t-11.63-8.56q-6 0-10 6.88t-4 18.56q0 14.26 4.8 22.87t11.57 8.61zm40.19 4.26v-1.58l8.81-4.16v-53.86l-8.81-4.16v-1.58h39.3q10.4 0 16.38 4.31a13.79 13.79 0 0 1 6 11.83 12.37 12.37 0 0 1-3.56 9.06 26.37 26.37 0 0 1-9.5 5.89l18.08 28.41 7.52 4.26v1.58h-26.11l-17.72-30.49h-2.77v24.65l7.43 4.26v1.58h-35zm30-59.89h-2.38V214h3q5.94 0 9.26-3.42a12.45 12.45 0 0 0 3.32-9.06q-.04-12.52-13.2-12.52zm46.23 59.89v-1.58l8.81-4.16v-53.86l-8.81-4.16v-1.58h36.47v1.58l-8.81 4.16v53.86l8.81 4.16v1.58h-36.47zm27.62-32.67l27-27.32-7.62-3.76v-1.58h24.97v1.58l-6.83 3.07L273.43 208l25 36.23 7.52 3.07v1.58h-27zm74.94 33.66a48.26 48.26 0 0 1-12.28-1.44 48.94 48.94 0 0 1-10.2-3.91l-1-17.13h1.88l8.71 13.46a18.7 18.7 0 0 0 4.9 2.62 16.89 16.89 0 0 0 5.89 1 15.43 15.43 0 0 0 8.46-2.18q3.41-2.18 3.42-6.93a8.08 8.08 0 0 0-3.07-6.63q-3.07-2.47-13.56-6.83-14.55-5.94-14.55-18.12a16.85 16.85 0 0 1 3.88-10.81 27.29 27.29 0 0 1 9.9-7.62 29.37 29.37 0 0 1 12.53-2.8 39.19 39.19 0 0 1 19.6 4.75l1 15.84h-1.78l-8.22-11.58a21.14 21.14 0 0 0-4.6-2.59 13.76 13.76 0 0 0-5.2-.94 9.06 9.06 0 0 0-6.39 2.33 8.26 8.26 0 0 0-2.52 6.39 7.79 7.79 0 0 0 2.82 6q2.82 2.52 10.44 5.89 9.11 4 13.32 8.61a16.63 16.63 0 0 1 4.21 11.58 17.74 17.74 0 0 1-8.27 15.44 33.49 33.49 0 0 1-19.32 5.6zm47.23-.99v-1.58l10.89-4.16V189h-12.87l-8.71 17.42h-1.63v-22.85h65.14v22.87h-1.54L421.54 189h-12.89v54.15l10.89 4.16v1.58h-40.57zm94.24.99a36.54 36.54 0 0 1-17.92-4.36 32.46 32.46 0 0 1-12.47-12 35.23 35.23 0 0 1 0-34.65 32.48 32.48 0 0 1 12.47-12 39.23 39.23 0 0 1 35.94 0 32.5 32.5 0 0 1 12.47 12 35.23 35.23 0 0 1 0 34.65 32.48 32.48 0 0 1-12.47 12 36.75 36.75 0 0 1-18.02 4.36zm1.29-5.25q6.24 0 10.1-6.93t3.86-18.61q0-14.26-4.7-22.82t-11.63-8.56q-6 0-10 6.88t-4 18.56q0 14.26 4.8 22.87t11.57 8.61zm40.15 4.26v-1.58l8.81-4.16v-53.86l-8.81-4.16v-1.58h21.48l38.91 40.79v-35l-12.18-4.16v-1.58h27.79v1.58l-8.61 4.16v60.09h-7.82l-43.76-45.34v39.1l12.19 4.12v1.58h-28zm81.92 0v-1.58l8.81-4.16v-53.86l-8.81-4.16v-1.58h57.62v17.23h-1.54l-8.17-11.8h-20.29v23.46h14.26l5.94-8.71h1.58v22.67h-1.58l-5.94-8.51h-14.26v25.54h22.37l8.81-16.24h1.58v21.68h-60.38z" style="isolation:isolate" fill="#fff" data-name="YORKSTONE"/><path d="M244.27 321.58a16.53 16.53 0 0 1-4.2-.46 18.86 18.86 0 0 1-3.56-1.38l-.4-6.56h.64l2 4.24a8.73 8.73 0 0 0 5.56 2.28 5.24 5.24 0 0 0 3.7-1.24 4.35 4.35 0 0 0 1.34-3.36 4 4 0 0 0-1.74-3.7q-1.74-1.1-4.74-2.62a18 18 0 0 1-4.34-2.86 5.54 5.54 0 0 1-1.54-4.22 6.12 6.12 0 0 1 1.14-3.48 9.12 9.12 0 0 1 3-2.76 7.47 7.47 0 0 1 3.84-1.08 12.51 12.51 0 0 1 3.4.44 19.29 19.29 0 0 1 3.2 1.24l.4 6.4h-.64l-1.84-4.2a13.33 13.33 0 0 0-2.44-1.5 5.88 5.88 0 0 0-2.4-.46 3.82 3.82 0 0 0-2.9 1.2 4.56 4.56 0 0 0 .1 6.14 16.54 16.54 0 0 0 3.88 2.42 23.31 23.31 0 0 1 5.36 3.32 5.9 5.9 0 0 1 1.72 4.6 6.48 6.48 0 0 1-1.36 4.18 8.66 8.66 0 0 1-3.32 2.56 9.43 9.43 0 0 1-3.86.86zm26.88 0a11.08 11.08 0 0 1-7.44-2.52q-3-2.52-3-8.12V297l-3.2-1.6v-.64h10v.64l-3.2 1.6v13.32q0 5 2.26 7a8.21 8.21 0 0 0 5.58 2 6.71 6.71 0 0 0 4.6-1.74q2-1.74 2-5.78V297l-4-1.52v-.64h10v.64l-3.2 1.52v14q0 5.6-3 8.12a11.08 11.08 0 0 1-7.4 2.46zm18.76-.4v-.64l3.2-1.6V297l-3.2-1.6v-.64h10.4a14.61 14.61 0 0 1 7.58 1.72 5.88 5.88 0 0 1 2.86 5.44 6.37 6.37 0 0 1-3.26 5.44 14.44 14.44 0 0 1-8.14 2.16h-2.64v9.4l3.6 1.6v.64h-10.4zm6.8-24.2v10.36h3.4a7.81 7.81 0 0 0 5-1.42 4.45 4.45 0 0 0 1.8-3.66 4.54 4.54 0 0 0-1.82-4 9.24 9.24 0 0 0-5.22-1.24h-3.12zm18.72 24.2v-.64l3.2-1.6V297l-3.2-1.6v-.64h10.4a14.6 14.6 0 0 1 7.58 1.72 5.88 5.88 0 0 1 2.86 5.44 6.37 6.37 0 0 1-3.26 5.44 14.44 14.44 0 0 1-8.14 2.16h-2.64v9.4l3.6 1.6v.64h-10.4zm6.8-24.2v10.36h3.42a7.81 7.81 0 0 0 5-1.42 4.45 4.45 0 0 0 1.8-3.66 4.54 4.54 0 0 0-1.82-4 9.24 9.24 0 0 0-5.28-1.26h-3.12zm18.72 24.2v-.64l3.2-1.6V297l-3.2-1.6v-.64h10.4v.64l-3.6 1.6v22h9.72l2.72-6.68h.64v8.88h-19.88zm25.08 0v-.64l3.2-1.6V297l-3.2-1.6v-.64h10v.64l-3.2 1.6v21.92l3.2 1.6v.64h-10zm15.4 0v-.64l3.2-1.6V297l-3.2-1.6v-.64h19.56v6.88h-.64l-2.48-4.64h-9.64v9.48h6.8l2-3.32h.62v8.76h-.64l-2-3.24h-6.8V319h10.76l2.48-5.08h.64v7.28h-20.66zm34.04.4a16.53 16.53 0 0 1-4.2-.46 18.87 18.87 0 0 1-3.56-1.38l-.4-6.56h.64l2 4.24a8.73 8.73 0 0 0 5.56 2.28 5.24 5.24 0 0 0 3.7-1.24 4.35 4.35 0 0 0 1.34-3.36 4 4 0 0 0-1.74-3.7q-1.74-1.1-4.74-2.62a18 18 0 0 1-4.34-2.86 5.54 5.54 0 0 1-1.54-4.22 6.12 6.12 0 0 1 1.14-3.48 9.11 9.11 0 0 1 3-2.76 7.47 7.47 0 0 1 3.84-1.08 12.51 12.51 0 0 1 3.4.44 19.3 19.3 0 0 1 3.2 1.24l.4 6.4h-.64l-1.84-4.2a13.32 13.32 0 0 0-2.44-1.5 5.88 5.88 0 0 0-2.4-.46 3.83 3.83 0 0 0-2.9 1.2 4.56 4.56 0 0 0 .1 6.14 16.54 16.54 0 0 0 3.88 2.42 23.32 23.32 0 0 1 5.36 3.32 5.9 5.9 0 0 1 1.72 4.6 6.48 6.48 0 0 1-1.36 4.18 8.66 8.66 0 0 1-3.32 2.56 9.43 9.43 0 0 1-3.86.86z" style="isolation:isolate" fill="#fff" data-name="SUPPLIES"/><g data-name="Layer 2"><ellipse cx="333.63" cy="70.34" rx="68.97" ry="67.34" fill="#263847"/><path d="M343.11 115.59l-9.71 16.83a61.62 61.62 0 0 0 58.46-42.49l-19 4-1.9 12-15.88 11.54zm8.54-30.27l1.32 12.52-11.5-5.12-5.45 3.45v13l17.76 2.83 12.35-9 2.82-17.76-12.3-4.04zm-11.18-9.16l5.26 7.23 7.34-6.08-2.42-9.22-8.45 2.75v.05a8.78 8.78 0 0 1-1.78 5.27m.23-10.37l8.41-2.79-3.52-8.86-9.51-.6v8.89a8.86 8.86 0 0 1 4.62 3.36m-3.62 5.1a3.61 3.61 0 1 0-3.61 3.61 3.61 3.61 0 0 0 3.61-3.61m-6.26-8.41v-8.9l-9.51.6-3.55 8.82 8.44 2.74a8.86 8.86 0 0 1 4.58-3.32m-9.69 20.98l5.26-7.23a8.77 8.77 0 0 1-1.78-5.27v-.05l-8.45-2.75-2.36 9.23zm9.71 12.77l-5.45-3.45-11.5 5.12 1.32-12.52-5-4.11-12.34 4 2.87 17.79 12.35 9 17.76-2.81v-13zm-34.56-16l12.38-4 1.58-6.2-8.46-9.39L314.07 58l2.36-6-7.65-10.5-16 8.17-4.72 14.53zm29.55-54.52L313.03 38.4l7.62 10.6 6.35-.41 6.34-11 6.34 11 6.39.41 7.67-10.55-12.72-12.76h-15.28zm32.25 15.85L350.33 52l2.32 6 12.37 2.63-8.37 9.37 1.59 6.21 12.37 4 8.17-16-4.72-14.53zm-32.65 45l8 5.09 8.05-5.1-5.27-7.25a8.13 8.13 0 0 1-5.56 0zM293.88 94l-19-4a61.61 61.61 0 0 0 58.46 42.49l-9.69-16.9-12 1.9-15.89-11.54zm5.35-53.5l-2-19.24A61.23 61.23 0 0 0 274.9 89.9l13-14.42-5.51-10.81L288.43 46zM351.78 29l17.68-7.87a61.07 61.07 0 0 0-72.14 0L314.99 29l8.58-8.58h19.63zm43.14 41.87a61.43 61.43 0 0 0-25.37-49.65l-2 19.24L378.33 46l6.07 18.67-5.51 10.81 13 14.42a61.21 61.21 0 0 0 3-19m5.27 0a66.8 66.8 0 1 1-66.8-66.8 66.87 66.87 0 0 1 66.8 66.8m4.09 0a70.89 70.89 0 1 0-70.89 70.89 70.89 70.89 0 0 0 70.89-70.89" fill="#fff"/></g></svg>