<?xml version="1.0" encoding="UTF-8"?><svg xmlns="http://www.w3.org/2000/svg" viewBox="0 0 32 32"><defs><style>.cls-1{stroke:#1a2933;stroke-miterlimit:10;}.cls-1,.cls-2{fill:none;}</style></defs><g id="Layer_1"><rect class="cls-2" width="32" height="32"/></g><g id="Layer_2"><g><path class="cls-1" d="M12.59,25.57H5.24c-.98,0-1.78-.8-1.78-1.78V8.31c0-.98,.8-1.78,1.78-1.78h7.35"/><path class="cls-1" d="M29.64,15.24l-7.91-7.91c-.58-.58-2.12-1.04-2.12,0v5.27h-7.34c-1.22,0-2.21,.99-2.21,2.21v3.11c0,1.22,.99,2.21,2.21,2.21h7.34v5.14c0,1.34,1.53,.58,2.12,0l7.91-7.91c.58-.58,.58-1.53,0-2.12Z"/></g></g></svg>