<svg xmlns="http://www.w3.org/2000/svg" viewBox="0 0 283.46 283.46">
    <g id="Ebene_2" data-name="Ebene 2">
        <g id="Layer_1" data-name="Layer 1">
            <rect width="283.46" height="283.46" />
            <path
                d="M157.23,212.92l-15.47,26.8a98.14,98.14,0,0,0,93.1-67.67l-30.23,6.43-3,19.08-25.29,18.38Zm13.58-48.2,2.1,19.93-18.32-8.15-8.68,5.5v20.65l28.3,4.48,19.67-14.3,4.48-28.28-19.65-6.39ZM153,150.13l8.37,11.53L173.07,152l-3.77-14.7-13.46,4.37v.09a13.94,13.94,0,0,1-2.83,8.39m.23-16.51,13.45-4.37-5.6-14.11-15.14-1v14.16a14.11,14.11,0,0,1,7.29,5.28m-5.76,8.12a5.75,5.75,0,1,0-5.75,5.74,5.75,5.75,0,0,0,5.75-5.74m-10-13.4V114.18l-15.14,1-5.6,14.11,13.45,4.37a14.11,14.11,0,0,1,7.29-5.28m-15.43,33.32,8.37-11.53a14,14,0,0,1-2.84-8.39s0-.06,0-.09l-13.46-4.37L110.4,152ZM137.54,182l-8.68-5.5-18.31,8.15,2.1-19.94-7.9-6.55L85.1,164.55l4.48,28.28,19.68,14.3,28.28-4.48Zm-55-25.42,19.71-6.4,2.53-9.88-13.47-15,19.7-4.2,3.75-9.45L102.55,94.93,77,107.93,69.5,131.07Zm47.06-86.83L109.32,90l12.2,16.8,10.12-.64,10.09-17.48,10.09,17.47,10.11.65L174.14,90,153.89,69.75Zm51.34,25.18L168.73,111.7l3.75,9.46,19.7,4.19-13.47,14.94,2.53,9.89,19.71,6.4,13-25.51-7.52-23.14Zm-52,71.7,12.81,8.11,12.82-8.12-8.39-11.55a12.94,12.94,0,0,1-8.85,0ZM78.83,178.47,48.6,172.05a98.14,98.14,0,0,0,93.1,67.67l-15.47-26.8-19.08,3-25.3-18.37Zm8.52-85.2L84.13,62.64A97.53,97.53,0,0,0,48.57,172L69.25,149l-8.77-17.23,9.66-29.72ZM171,75.05l28.15-12.53a97.27,97.27,0,0,0-114.88,0l28.14,12.53L126.1,61.38h31.26Zm68.7,66.69a97.81,97.81,0,0,0-40.4-79.1l-3.21,30.63,17.21,8.78L223,131.77,214.21,149l20.68,23a97.48,97.48,0,0,0,4.83-30.22m8.39,0A106.38,106.38,0,1,1,141.73,35.35,106.5,106.5,0,0,1,248.11,141.74m6.51,0A112.89,112.89,0,1,0,141.73,254.62,112.88,112.88,0,0,0,254.62,141.73"
                />
        </g>
    </g>
</svg>
